<?xml version="1.0" encoding="utf-8"?>
<!-- Generator: Adobe Illustrator 16.0.0, SVG Export Plug-In . SVG Version: 6.00 Build 0)  -->
<!DOCTYPE svg PUBLIC "-//W3C//DTD SVG 1.1//EN" "http://www.w3.org/Graphics/SVG/1.1/DTD/svg11.dtd">
<svg version="1.1" xmlns="http://www.w3.org/2000/svg" xmlns:xlink="http://www.w3.org/1999/xlink" x="0px" y="0px" width="1536px"
	 height="736px" viewBox="0 0 1536 736" enable-background="new 0 0 1536 736" xml:space="preserve">
<g id="Fundo">
	<rect fill="none" width="1536" height="736"/>
</g>
<g id="Guidelines_1_" display="none">
</g>
<g id="Settings">
</g>
<g id="Símbolo">
	<g>
		<path fill="#FFFFFF" d="M928,224c0,8.8-7.2,16-16,16H624c-8.8,0-16-7.2-16-16v-96c0-8.8,7.2-16,16-16h288c8.8,0,16,7.2,16,16V224z
			"/>
	</g>
	<g>
		<path fill="#FFFFFF" d="M736,384c0,8.8-7.2,16-16,16h-96c-8.8,0-16-7.2-16-16v-96c0-8.8,7.2-16,16-16h96c8.8,0,16,7.2,16,16V384z"
			/>
	</g>
</g>
<g id="Texto">
	<g>
		<path fill="#FFFFFF" d="M270.292,520.32h-40.48V624h-11.2V520.32h-40.479v-9.92h92.16V520.32z"/>
		<path fill="#FFFFFF" d="M307.3,550.24c-7.36,0.215-13.761,2.24-19.2,6.08c-5.44,3.84-9.28,9.12-11.521,15.84V624h-10.88v-83.36
			h10.24v20c2.88-5.864,6.665-10.745,11.36-14.64c4.692-3.893,9.76-5.84,15.2-5.84c0.96,0,1.864,0,2.72,0
			c0.853,0,1.545,0.055,2.08,0.16V550.24z"/>
		<path fill="#FFFFFF" d="M340.307,625.6c-4.268,0-8.16-0.667-11.68-2c-3.521-1.332-6.535-3.172-9.04-5.52
			c-2.508-2.345-4.455-5.065-5.84-8.16c-1.388-3.093-2.08-6.345-2.08-9.76c0-3.84,0.853-7.333,2.56-10.48
			c1.705-3.145,4.105-5.84,7.2-8.08c3.093-2.239,6.8-3.972,11.12-5.199c4.32-1.226,9.093-1.841,14.32-1.841
			c4.16,0,8.425,0.375,12.8,1.12c4.372,0.748,8.265,1.815,11.68,3.2v-7.52c0-7.36-2.107-13.2-6.319-17.521
			c-4.216-4.32-9.896-6.479-17.04-6.479c-4.48,0-8.936,0.854-13.36,2.56c-4.428,1.708-8.936,4.16-13.521,7.36l-3.84-7.2
			c5.44-3.625,10.721-6.345,15.84-8.16c5.12-1.813,10.453-2.72,16-2.72c10.133,0,18.186,2.935,24.16,8.8
			c5.973,5.867,8.96,13.975,8.96,24.32v37.6c0,2.987,1.28,4.48,3.84,4.48v9.6c-0.854,0.105-1.654,0.185-2.399,0.24
			c-0.748,0.053-1.388,0.08-1.92,0.08c-2.135,0-4.08-0.641-5.84-1.92c-1.761-1.28-2.748-3.2-2.96-5.761l-0.32-6.56
			c-3.628,4.907-8.4,8.72-14.32,11.439C352.387,624.24,346.387,625.6,340.307,625.6z M343.027,617.28c4.8,0,9.572-1.04,14.319-3.12
			c4.745-2.08,8.505-4.933,11.28-8.561c0.745-0.96,1.385-2,1.92-3.119c0.532-1.12,0.8-2.16,0.8-3.12V585.76
			c-3.627-1.385-7.415-2.452-11.359-3.2c-3.948-0.744-7.788-1.119-11.521-1.119c-7.787,0-14.107,1.574-18.96,4.72
			c-4.854,3.147-7.28,7.495-7.28,13.04c0,2.24,0.426,4.428,1.28,6.56c0.853,2.135,2.16,4.056,3.92,5.76
			c1.76,1.708,3.92,3.096,6.48,4.16C336.467,616.747,339.507,617.28,343.027,617.28z"/>
		<path fill="#FFFFFF" d="M472.434,624h-10.88v-46.56c0-9.921-1.439-17.12-4.32-21.601c-2.88-4.479-7.359-6.72-13.439-6.72
			c-3.2,0-6.4,0.587-9.601,1.76c-3.199,1.175-6.188,2.827-8.96,4.96c-2.774,2.135-5.199,4.668-7.279,7.601
			c-2.08,2.935-3.655,6.107-4.721,9.52V624h-10.88v-83.36h9.92v18.88c1.705-2.984,3.813-5.732,6.32-8.239
			c2.505-2.505,5.305-4.665,8.4-6.48c3.092-1.813,6.372-3.2,9.84-4.16c3.465-0.96,7.064-1.439,10.8-1.439
			c4.692,0,8.612,0.854,11.76,2.56c3.146,1.708,5.681,4.107,7.601,7.2c1.92,3.095,3.305,6.88,4.16,11.36
			c0.852,4.479,1.279,9.439,1.279,14.88V624z"/>
		<path fill="#FFFFFF" d="M519.632,625.6c-6.507,0-12.854-1.067-19.04-3.199c-6.188-2.133-11.52-5.226-16-9.28l4.96-7.36
			c4.693,3.84,9.466,6.721,14.32,8.641c4.853,1.92,10.053,2.88,15.6,2.88c6.721,0,12.08-1.36,16.08-4.08s6-6.585,6-11.601
			c0-2.345-0.534-4.292-1.6-5.84c-1.067-1.545-2.64-2.904-4.72-4.08c-2.08-1.172-4.695-2.212-7.84-3.12
			c-3.147-0.904-6.801-1.84-10.96-2.8c-4.801-1.172-8.961-2.345-12.48-3.52c-3.52-1.173-6.428-2.505-8.72-4
			c-2.295-1.493-4-3.333-5.12-5.521c-1.12-2.185-1.68-4.933-1.68-8.239c0-4.16,0.824-7.841,2.479-11.04
			c1.652-3.2,3.893-5.841,6.72-7.921c2.825-2.079,6.133-3.652,9.92-4.72c3.785-1.064,7.813-1.6,12.08-1.6
			c6.4,0,12.213,1.04,17.44,3.12c5.225,2.08,9.439,4.827,12.64,8.239l-5.279,6.4c-3.096-3.2-6.855-5.6-11.28-7.2
			c-4.428-1.6-9.04-2.399-13.84-2.399c-2.88,0-5.548,0.295-8,0.88c-2.455,0.587-4.615,1.52-6.48,2.8
			c-1.867,1.28-3.335,2.907-4.399,4.88c-1.068,1.975-1.601,4.295-1.601,6.96c0,2.24,0.373,4.055,1.12,5.44
			c0.745,1.387,1.973,2.587,3.68,3.6c1.705,1.015,3.865,1.92,6.48,2.72c2.612,0.801,5.785,1.628,9.52,2.48
			c5.333,1.28,10.025,2.56,14.08,3.84c4.053,1.28,7.44,2.775,10.16,4.48c2.72,1.707,4.772,3.787,6.16,6.239
			c1.385,2.455,2.08,5.44,2.08,8.96c0,7.681-2.936,13.761-8.8,18.24C537.444,623.36,529.552,625.6,519.632,625.6z"/>
		<path fill="#FFFFFF" d="M566.097,507.2h10.88v97.92c0,3.095,0.853,5.52,2.56,7.28c1.705,1.76,4.105,2.64,7.2,2.64
			c1.173,0,2.561-0.16,4.16-0.48c1.6-0.319,3.093-0.744,4.48-1.279l1.92,8.8c-2.028,0.854-4.508,1.548-7.44,2.08
			c-2.935,0.532-5.468,0.8-7.6,0.8c-5.016,0-8.96-1.412-11.84-4.24c-2.881-2.825-4.32-6.8-4.32-11.92V507.2z"/>
		<path fill="#FFFFFF" d="M629.295,625.6c-4.268,0-8.16-0.667-11.68-2c-3.521-1.332-6.535-3.172-9.04-5.52
			c-2.508-2.345-4.455-5.065-5.84-8.16c-1.388-3.093-2.08-6.345-2.08-9.76c0-3.84,0.853-7.333,2.56-10.48
			c1.705-3.145,4.105-5.84,7.2-8.08c3.093-2.239,6.8-3.972,11.12-5.199c4.32-1.226,9.093-1.841,14.32-1.841
			c4.16,0,8.425,0.375,12.8,1.12c4.372,0.748,8.265,1.815,11.68,3.2v-7.52c0-7.36-2.107-13.2-6.319-17.521
			c-4.216-4.32-9.896-6.479-17.04-6.479c-4.48,0-8.936,0.854-13.36,2.56c-4.428,1.708-8.936,4.16-13.521,7.36l-3.84-7.2
			c5.44-3.625,10.721-6.345,15.84-8.16c5.12-1.813,10.453-2.72,16-2.72c10.133,0,18.186,2.935,24.16,8.8
			c5.973,5.867,8.96,13.975,8.96,24.32v37.6c0,2.987,1.28,4.48,3.84,4.48v9.6c-0.854,0.105-1.654,0.185-2.399,0.24
			c-0.748,0.053-1.388,0.08-1.92,0.08c-2.135,0-4.08-0.641-5.84-1.92c-1.761-1.28-2.748-3.2-2.96-5.761l-0.32-6.56
			c-3.628,4.907-8.4,8.72-14.32,11.439C641.375,624.24,635.375,625.6,629.295,625.6z M632.016,617.28c4.8,0,9.572-1.04,14.319-3.12
			c4.745-2.08,8.505-4.933,11.28-8.561c0.745-0.96,1.385-2,1.92-3.119c0.532-1.12,0.8-2.16,0.8-3.12V585.76
			c-3.627-1.385-7.415-2.452-11.359-3.2c-3.948-0.744-7.788-1.119-11.521-1.119c-7.787,0-14.107,1.574-18.96,4.72
			c-4.854,3.147-7.28,7.495-7.28,13.04c0,2.24,0.426,4.428,1.28,6.56c0.853,2.135,2.16,4.056,3.92,5.76
			c1.76,1.708,3.92,3.096,6.48,4.16C625.455,616.747,628.495,617.28,632.016,617.28z"/>
		<path fill="#FFFFFF" d="M729.405,620c-0.64,0.32-1.575,0.747-2.8,1.28c-1.228,0.535-2.641,1.067-4.24,1.6
			c-1.6,0.535-3.415,1.015-5.44,1.44c-2.027,0.425-4.159,0.64-6.399,0.64c-2.348,0-4.588-0.32-6.72-0.96
			c-2.136-0.64-4-1.625-5.601-2.96c-1.6-1.333-2.88-3.013-3.84-5.04c-0.96-2.025-1.44-4.372-1.44-7.04v-59.68h-11.52v-8.641h11.52
			V512.48h10.881v28.159h19.199v8.641h-19.199v56.64c0.212,3.095,1.279,5.36,3.199,6.8c1.92,1.44,4.213,2.16,6.881,2.16
			c3.092,0,5.813-0.505,8.159-1.52c2.346-1.013,3.841-1.732,4.48-2.16L729.405,620z"/>
		<path fill="#FFFFFF" d="M739.083,523.2v-16h10.88v16H739.083z M739.083,624v-83.36h10.88V624H739.083z"/>
		<path fill="#FFFFFF" d="M806.473,625.6c-6.08,0-11.654-1.147-16.72-3.439c-5.067-2.293-9.44-5.413-13.12-9.36
			c-3.68-3.944-6.535-8.532-8.56-13.76c-2.027-5.225-3.04-10.72-3.04-16.48c0-5.864,1.04-11.412,3.12-16.64
			c2.08-5.225,4.96-9.813,8.64-13.76c3.68-3.945,8.053-7.093,13.12-9.44c5.064-2.345,10.585-3.52,16.56-3.52
			c5.973,0,11.493,1.175,16.561,3.52c5.064,2.348,9.439,5.495,13.12,9.44c3.68,3.947,6.56,8.535,8.64,13.76
			c2.08,5.228,3.12,10.775,3.12,16.64c0,5.761-1.04,11.256-3.12,16.48c-2.08,5.228-4.96,9.815-8.64,13.76
			c-3.681,3.947-8.056,7.067-13.12,9.36C817.966,624.452,812.445,625.6,806.473,625.6z M776.233,582.72
			c0,4.695,0.772,9.04,2.319,13.04c1.545,4,3.681,7.521,6.4,10.561s5.92,5.415,9.6,7.12c3.681,1.707,7.601,2.56,11.76,2.56
			c4.16,0,8.08-0.88,11.761-2.64c3.68-1.761,6.904-4.16,9.68-7.2c2.772-3.04,4.96-6.585,6.56-10.641
			c1.601-4.052,2.4-8.425,2.4-13.119c0-4.585-0.8-8.933-2.4-13.04c-1.6-4.105-3.787-7.681-6.56-10.721
			c-2.775-3.04-5.975-5.439-9.6-7.199c-3.628-1.761-7.521-2.641-11.681-2.641s-8.08,0.88-11.76,2.641
			c-3.68,1.76-6.88,4.188-9.6,7.279c-2.721,3.096-4.88,6.695-6.48,10.8C777.033,573.628,776.233,578.027,776.233,582.72z"/>
		<path fill="#FFFFFF" d="M932.567,624h-10.88v-46.56c0-9.921-1.439-17.12-4.32-21.601c-2.88-4.479-7.359-6.72-13.439-6.72
			c-3.2,0-6.4,0.587-9.601,1.76c-3.199,1.175-6.188,2.827-8.96,4.96c-2.774,2.135-5.199,4.668-7.279,7.601
			c-2.08,2.935-3.655,6.107-4.721,9.52V624h-10.88v-83.36h9.92v18.88c1.705-2.984,3.813-5.732,6.32-8.239
			c2.505-2.505,5.305-4.665,8.4-6.48c3.092-1.813,6.372-3.2,9.84-4.16c3.465-0.96,7.064-1.439,10.8-1.439
			c4.692,0,8.612,0.854,11.76,2.56c3.146,1.708,5.681,4.107,7.601,7.2c1.92,3.095,3.305,6.88,4.16,11.36
			c0.852,4.479,1.279,9.439,1.279,14.88V624z"/>
		<path fill="#FFFFFF" d="M1061.364,540.16c-0.747-0.745-2.107-1.76-4.079-3.04c-1.976-1.28-4.375-2.532-7.2-3.76
			c-2.828-1.226-5.896-2.266-9.2-3.12c-3.308-0.853-6.668-1.28-10.08-1.28c-6.08,0-10.615,1.12-13.6,3.36
			c-2.988,2.239-4.48,5.387-4.48,9.439c0,2.348,0.561,4.295,1.68,5.84c1.12,1.548,2.745,2.908,4.881,4.08
			c2.132,1.176,4.824,2.24,8.079,3.2c3.253,0.96,7.013,1.976,11.28,3.04c5.545,1.495,10.585,3.095,15.12,4.8
			c4.532,1.708,8.373,3.84,11.521,6.4c3.145,2.56,5.572,5.627,7.279,9.2c1.705,3.574,2.561,7.975,2.561,13.199
			c0,6.08-1.147,11.28-3.44,15.601c-2.295,4.32-5.388,7.814-9.28,10.479c-3.895,2.668-8.375,4.615-13.439,5.841
			c-5.067,1.225-10.375,1.84-15.92,1.84c-8.535,0-16.96-1.28-25.28-3.84c-8.32-2.561-15.787-6.186-22.4-10.881l9.761-19.04
			c0.96,0.961,2.692,2.216,5.2,3.761c2.505,1.547,5.465,3.095,8.88,4.64c3.412,1.548,7.199,2.855,11.359,3.92
			c4.16,1.067,8.425,1.601,12.8,1.601c12.16,0,18.24-3.893,18.24-11.681c0-2.452-0.694-4.532-2.08-6.24
			c-1.387-1.704-3.359-3.199-5.92-4.479c-2.56-1.28-5.654-2.452-9.279-3.521c-3.628-1.064-7.681-2.239-12.16-3.52
			c-5.44-1.492-10.16-3.12-14.16-4.88s-7.335-3.84-10-6.24c-2.668-2.399-4.668-5.173-6-8.32c-1.335-3.145-2-6.904-2-11.279
			c0-5.761,1.064-10.88,3.2-15.36c2.132-4.479,5.092-8.213,8.88-11.2c3.785-2.984,8.185-5.252,13.2-6.8
			c5.012-1.545,10.399-2.32,16.159-2.32c8,0,15.36,1.256,22.08,3.761c6.721,2.507,12.585,5.467,17.601,8.88L1061.364,540.16z"/>
		<path fill="#FFFFFF" d="M1134.884,619.68c-2.88,1.28-6.4,2.561-10.56,3.84c-4.16,1.28-8.535,1.921-13.12,1.921
			c-2.988,0-5.788-0.375-8.4-1.12c-2.615-0.745-4.907-1.945-6.88-3.601c-1.975-1.652-3.548-3.785-4.72-6.399
			c-1.176-2.613-1.761-5.785-1.761-9.521v-48.16h-11.04V540.16h11.04v-27.2h21.44v27.2h17.6v16.479h-17.6v40.96
			c0,2.988,0.772,5.096,2.32,6.32c1.545,1.228,3.439,1.84,5.68,1.84s4.425-0.372,6.56-1.12c2.133-0.745,3.841-1.385,5.12-1.92
			L1134.884,619.68z"/>
		<path fill="#FFFFFF" d="M1166.593,625.6c-4.055,0-7.84-0.667-11.359-2c-3.521-1.332-6.561-3.199-9.12-5.6
			c-2.561-2.4-4.561-5.2-6-8.4c-1.44-3.199-2.16-6.72-2.16-10.56c0-3.945,0.88-7.6,2.64-10.96c1.761-3.36,4.213-6.213,7.36-8.561
			c3.145-2.345,6.905-4.185,11.28-5.52c4.372-1.332,9.172-2,14.399-2c3.732,0,7.386,0.32,10.96,0.96
			c3.573,0.64,6.745,1.548,9.521,2.72v-4.8c0-5.545-1.575-9.813-4.72-12.8c-3.147-2.985-7.815-4.48-14-4.48
			c-4.48,0-8.855,0.801-13.12,2.4c-4.268,1.6-8.641,3.947-13.12,7.04l-6.561-13.6c10.772-7.146,22.4-10.721,34.88-10.721
			c12.053,0,21.413,2.96,28.08,8.88c6.665,5.92,10,14.48,10,25.681v26.08c0,2.239,0.4,3.84,1.2,4.8s2.105,1.495,3.92,1.6V624
			c-3.627,0.745-6.774,1.12-9.439,1.12c-4.056,0-7.175-0.907-9.36-2.72c-2.188-1.813-3.548-4.213-4.08-7.2l-0.479-4.641
			c-3.735,4.908-8.268,8.641-13.601,11.2C1178.378,624.32,1172.673,625.6,1166.593,625.6z M1172.673,609.92
			c3.625,0,7.065-0.64,10.32-1.92c3.253-1.28,5.785-2.985,7.6-5.12c2.346-1.813,3.521-3.84,3.521-6.08v-9.6
			c-2.561-0.96-5.335-1.732-8.32-2.32c-2.987-0.585-5.867-0.88-8.64-0.88c-5.548,0-10.08,1.255-13.601,3.76
			c-3.52,2.508-5.279,5.681-5.279,9.521c0,3.627,1.385,6.64,4.16,9.04C1165.206,608.72,1168.618,609.92,1172.673,609.92z"/>
		<path fill="#FFFFFF" d="M1280.736,619.68c-2.88,1.28-6.4,2.561-10.56,3.84c-4.16,1.28-8.535,1.921-13.12,1.921
			c-2.988,0-5.788-0.375-8.4-1.12c-2.615-0.745-4.907-1.945-6.88-3.601c-1.975-1.652-3.548-3.785-4.72-6.399
			c-1.176-2.613-1.761-5.785-1.761-9.521v-48.16h-11.04V540.16h11.04v-27.2h21.44v27.2h17.6v16.479h-17.6v40.96
			c0,2.988,0.772,5.096,2.32,6.32c1.545,1.228,3.439,1.84,5.68,1.84s4.425-0.372,6.56-1.12c2.133-0.745,3.841-1.385,5.12-1.92
			L1280.736,619.68z"/>
		<path fill="#FFFFFF" d="M1322.83,625.6c-7.04,0-13.921-1.119-20.641-3.359s-12.479-5.44-17.28-9.601l8-13.439
			c5.12,3.627,10.105,6.375,14.961,8.24c4.852,1.867,9.68,2.8,14.479,2.8c4.265,0,7.625-0.8,10.08-2.4
			c2.452-1.6,3.68-3.893,3.68-6.88c0-2.985-1.439-5.173-4.319-6.56c-2.881-1.386-7.575-2.985-14.08-4.801
			c-5.44-1.492-10.08-2.932-13.92-4.319c-3.841-1.386-6.936-2.96-9.28-4.721c-2.348-1.76-4.055-3.784-5.12-6.079
			c-1.067-2.293-1.6-5.04-1.6-8.24c0-4.266,0.824-8.105,2.479-11.521c1.652-3.412,3.973-6.319,6.96-8.72
			c2.985-2.4,6.48-4.24,10.48-5.52c4-1.28,8.345-1.921,13.04-1.921c6.292,0,12.185,0.908,17.68,2.721
			c5.492,1.814,10.532,4.747,15.12,8.8l-8.641,12.96c-4.267-3.2-8.399-5.545-12.399-7.04c-4-1.492-7.976-2.24-11.92-2.24
			c-3.628,0-6.668,0.748-9.12,2.24c-2.455,1.495-3.68,3.895-3.68,7.2c0,1.495,0.292,2.72,0.88,3.68c0.585,0.96,1.52,1.815,2.8,2.561
			c1.28,0.747,2.96,1.467,5.04,2.159c2.08,0.695,4.665,1.415,7.76,2.16c5.76,1.495,10.692,2.987,14.8,4.48
			c4.105,1.495,7.465,3.2,10.08,5.12c2.612,1.92,4.533,4.135,5.76,6.64c1.226,2.508,1.841,5.52,1.841,9.04
			c0,8.215-3.04,14.695-9.12,19.44C1341.55,623.228,1333.282,625.6,1322.83,625.6z"/>
	</g>
</g>
<g id="Layer_1">
</g>
</svg>
